<svg width="31" height="31" viewBox="0 0 31 31" fill="none" xmlns="http://www.w3.org/2000/svg">
<path d="M24.9834 4.59424H23.1084C23.1084 3.56049 22.2672 2.71924 21.2334 2.71924C20.1996 2.71924 19.3584 3.56049 19.3584 4.59424H11.8584C11.8584 3.56049 11.0171 2.71924 9.9834 2.71924C8.94965 2.71924 8.1084 3.56049 8.1084 4.59424H6.2334C4.51027 4.59424 3.1084 5.99611 3.1084 7.71924V25.8442C3.1084 27.5674 4.51027 28.9692 6.2334 28.9692H24.9834C26.7065 28.9692 28.1084 27.5674 28.1084 25.8442V7.71924C28.1084 5.99611 26.7065 4.59424 24.9834 4.59424ZM20.6084 4.59424C20.6084 4.24986 20.8884 3.96924 21.2334 3.96924C21.5784 3.96924 21.8584 4.24986 21.8584 4.59424V5.84424C21.8584 6.18861 21.5784 6.46924 21.2334 6.46924C20.8884 6.46924 20.6084 6.18861 20.6084 5.84424V4.59424ZM9.3584 4.59424C9.3584 4.24986 9.6384 3.96924 9.9834 3.96924C10.3284 3.96924 10.6084 4.24986 10.6084 4.59424V5.84424C10.6084 6.18861 10.3284 6.46924 9.9834 6.46924C9.6384 6.46924 9.3584 6.18861 9.3584 5.84424V4.59424ZM4.3584 7.71924C4.3584 6.68549 5.19965 5.84424 6.2334 5.84424H8.1084C8.1084 6.87799 8.94965 7.71924 9.9834 7.71924C11.0171 7.71924 11.8584 6.87799 11.8584 5.84424H19.3584C19.3584 6.87799 20.1996 7.71924 21.2334 7.71924C22.2672 7.71924 23.1084 6.87799 23.1084 5.84424H24.9834C26.0172 5.84424 26.8584 6.68549 26.8584 7.71924V10.2192H4.3584V7.71924ZM26.8584 25.8442C26.8584 26.878 26.0172 27.7192 24.9834 27.7192H6.2334C5.19965 27.7192 4.3584 26.878 4.3584 25.8442V11.4692H26.8584V25.8442Z" fill="#FF693D"/>
<path d="M8.1084 18.3442H9.9834C10.6728 18.3442 11.2334 17.7836 11.2334 17.0942V15.2192C11.2334 14.5299 10.6728 13.9692 9.9834 13.9692H8.1084C7.41902 13.9692 6.8584 14.5299 6.8584 15.2192V17.0942C6.8584 17.7836 7.41902 18.3442 8.1084 18.3442ZM8.1084 15.2192H9.9834L9.98465 17.0942H8.1084V15.2192Z" fill="#FF693D"/>
<path d="M14.6709 18.3442H16.5459C17.2353 18.3442 17.7959 17.7836 17.7959 17.0942V15.2192C17.7959 14.5299 17.2353 13.9692 16.5459 13.9692H14.6709C13.9815 13.9692 13.4209 14.5299 13.4209 15.2192V17.0942C13.4209 17.7836 13.9815 18.3442 14.6709 18.3442ZM14.6709 15.2192H16.5459L16.5471 17.0942H14.6709V15.2192Z" fill="#FF693D"/>
<path d="M21.2334 18.3442H23.1084C23.7978 18.3442 24.3584 17.7836 24.3584 17.0942V15.2192C24.3584 14.5299 23.7978 13.9692 23.1084 13.9692H21.2334C20.544 13.9692 19.9834 14.5299 19.9834 15.2192V17.0942C19.9834 17.7836 20.544 18.3442 21.2334 18.3442ZM21.2334 15.2192H23.1084L23.1096 17.0942H21.2334V15.2192Z" fill="#FF693D"/>
<path d="M8.1084 25.2192H9.9834C10.6728 25.2192 11.2334 24.6586 11.2334 23.9692V22.0942C11.2334 21.4049 10.6728 20.8442 9.9834 20.8442H8.1084C7.41902 20.8442 6.8584 21.4049 6.8584 22.0942V23.9692C6.8584 24.6586 7.41902 25.2192 8.1084 25.2192ZM8.1084 22.0942H9.9834L9.98465 23.9692H8.1084V22.0942Z" fill="#FF693D"/>
<path d="M14.6709 25.2192H16.5459C17.2353 25.2192 17.7959 24.6586 17.7959 23.9692V22.0942C17.7959 21.4049 17.2353 20.8442 16.5459 20.8442H14.6709C13.9815 20.8442 13.4209 21.4049 13.4209 22.0942V23.9692C13.4209 24.6586 13.9815 25.2192 14.6709 25.2192ZM14.6709 22.0942H16.5459L16.5471 23.9692H14.6709V22.0942Z" fill="#FF693D"/>
<path d="M21.2334 25.2192H23.1084C23.7978 25.2192 24.3584 24.6586 24.3584 23.9692V22.0942C24.3584 21.4049 23.7978 20.8442 23.1084 20.8442H21.2334C20.544 20.8442 19.9834 21.4049 19.9834 22.0942V23.9692C19.9834 24.6586 20.544 25.2192 21.2334 25.2192ZM21.2334 22.0942H23.1084L23.1096 23.9692H21.2334V22.0942Z" fill="#FF693D"/>
</svg>
