<svg width="31" height="31" viewBox="0 0 31 31" fill="none" xmlns="http://www.w3.org/2000/svg">
<rect x="0.28125" y="0.763336" width="30" height="30" rx="15" fill="#FF693D"/>
<path d="M19.4486 20.7633C19.8906 20.7633 20.3145 20.9389 20.6271 21.2515C20.9396 21.5641 21.1152 21.988 21.1152 22.43C21.1152 22.872 20.9396 23.296 20.6271 23.6085C20.3145 23.9211 19.8906 24.0967 19.4486 24.0967C19.0065 24.0967 18.5826 23.9211 18.2701 23.6085C17.9575 23.296 17.7819 22.872 17.7819 22.43C17.7819 21.505 18.5236 20.7633 19.4486 20.7633ZM6.11523 7.43H8.84023L9.62357 9.09667H21.9486C22.1696 9.09667 22.3815 9.18447 22.5378 9.34075C22.6941 9.49703 22.7819 9.70899 22.7819 9.93C22.7819 10.0717 22.7402 10.2133 22.6819 10.3467L19.6986 15.7383C19.4152 16.2467 18.8652 16.5967 18.2402 16.5967H12.0319L11.2819 17.955L11.2569 18.055C11.2569 18.1103 11.2789 18.1632 11.3179 18.2023C11.357 18.2414 11.41 18.2633 11.4652 18.2633H21.1152V19.93H11.1152C10.6732 19.93 10.2493 19.7544 9.93672 19.4418C9.62416 19.1293 9.44857 18.7054 9.44857 18.2633C9.44857 17.9717 9.52357 17.6967 9.64857 17.4633L10.7819 15.4217L7.7819 9.09667H6.11523V7.43ZM11.1152 20.7633C11.5573 20.7633 11.9812 20.9389 12.2937 21.2515C12.6063 21.5641 12.7819 21.988 12.7819 22.43C12.7819 22.872 12.6063 23.296 12.2937 23.6085C11.9812 23.9211 11.5573 24.0967 11.1152 24.0967C10.6732 24.0967 10.2493 23.9211 9.93672 23.6085C9.62416 23.296 9.44857 22.872 9.44857 22.43C9.44857 21.505 10.1902 20.7633 11.1152 20.7633ZM18.6152 14.93L20.9319 10.7633H10.3986L12.3652 14.93H18.6152Z" fill="white"/>
</svg>
