<svg width="21" height="20" viewBox="0 0 21 20" fill="none" xmlns="http://www.w3.org/2000/svg">
<g clip-path="url(#clip0_300_8214)">
<path d="M16.5208 14.1647C15.1365 14.1647 14.0103 15.2834 14.0103 16.6584C14.0103 18.0335 15.1365 19.1522 16.5208 19.1522C17.9051 19.1522 19.0313 18.0335 19.0313 16.6584C19.0313 15.2834 17.9051 14.1647 16.5208 14.1647ZM16.5208 17.6559C15.967 17.6559 15.5166 17.2086 15.5166 16.6584C15.5166 16.1083 15.967 15.6609 16.5208 15.6609C17.0746 15.6609 17.525 16.1083 17.525 16.6584C17.525 17.2086 17.0746 17.6559 16.5208 17.6559Z" fill="#FF693D"/>
<path d="M20.5529 4.52639C20.4103 4.3451 20.1916 4.23936 19.9599 4.23936H5.22766L4.54982 1.42216C4.46873 1.08551 4.16569 0.847857 3.81724 0.847857H1.33182C0.915846 0.847817 0.578674 1.18274 0.578674 1.59595C0.578674 2.00915 0.915846 2.34408 1.33182 2.34408H3.22276L5.6705 12.5177C5.75159 12.8546 6.05463 13.092 6.40308 13.092H18.1272C18.4734 13.092 18.7752 12.8576 18.8583 12.5239L20.691 5.16726C20.7464 4.94386 20.6954 4.70768 20.5529 4.52639ZM17.538 11.5958H6.99756L5.58764 5.73562H18.9976L17.538 11.5958Z" fill="#01202B"/>
<path d="M7.40753 14.1647C6.02322 14.1647 4.89703 15.2834 4.89703 16.6584C4.89703 18.0335 6.02326 19.1522 7.40753 19.1522C8.79181 19.1522 9.91804 18.0335 9.91804 16.6584C9.91804 15.2834 8.79181 14.1647 7.40753 14.1647ZM7.40753 17.6559C6.85372 17.6559 6.40333 17.2086 6.40333 16.6584C6.40333 16.1083 6.85372 15.6609 7.40753 15.6609C7.96135 15.6609 8.41174 16.1083 8.41174 16.6584C8.41174 17.2086 7.96135 17.6559 7.40753 17.6559Z" fill="#FF693D"/>
</g>
<defs>
<clipPath id="clip0_300_8214">
<rect width="20.1342" height="20" fill="white" transform="translate(0.578674)"/>
</clipPath>
</defs>
</svg>
