<svg width="31" height="31" viewBox="0 0 31 31" fill="none" xmlns="http://www.w3.org/2000/svg">
<g clip-path="url(#clip0_495_26221)">
<path d="M28.5304 2.87256H2.68643C1.54066 2.87256 0.608398 3.80482 0.608398 4.95059V22.4842C0.608398 23.63 1.54066 24.5622 2.68643 24.5622H17.7564L17.3014 27.3373C17.2158 27.8596 17.3886 28.3328 17.7637 28.6029C18.1387 28.8729 18.6419 28.8874 19.1104 28.6405L22.3617 26.9292C22.4524 26.8826 22.7024 26.8826 22.7931 26.9292L26.0444 28.6405C26.2669 28.7576 26.4972 28.8159 26.718 28.8159C26.9621 28.8159 27.1944 28.7445 27.3913 28.6027C27.7662 28.3327 27.939 27.8594 27.8535 27.337L27.3986 24.5621H28.5305C29.6763 24.5621 30.6085 23.6298 30.6085 22.4841V4.95059C30.6084 3.8047 29.6761 2.87256 28.5304 2.87256ZM22.5775 21.0004C20.5805 21.0004 18.9558 19.3756 18.9558 17.3786C18.9558 15.3817 20.5805 13.7569 22.5775 13.7569C24.5744 13.7569 26.1992 15.3817 26.1992 17.3786C26.1992 19.3756 24.5744 21.0004 22.5775 21.0004ZM23.6228 25.3531C23.0171 25.0341 22.1377 25.0341 21.5322 25.3531L19.2335 26.5629L19.9642 22.1054C20.7393 22.5356 21.6301 22.7814 22.5776 22.7814C23.525 22.7814 24.4157 22.5355 25.1909 22.1054L25.4757 23.8432C25.4764 23.8461 25.4766 23.8492 25.4772 23.852L25.9217 26.5631L23.6228 25.3531ZM28.8272 22.4842C28.8272 22.6451 28.6913 22.781 28.5304 22.781H27.1065L26.7813 20.7969C26.78 20.7891 26.7778 20.7816 26.7763 20.7738C27.5285 19.8454 27.9805 18.6639 27.9805 17.3786C27.9805 14.3995 25.5568 11.9758 22.5776 11.9758C19.5984 11.9758 17.1747 14.3995 17.1747 17.3786C17.1747 18.6639 17.6266 19.8452 18.3789 20.7738C18.3773 20.7815 18.3752 20.7891 18.3739 20.7968L18.0484 22.7826C18.0384 22.7822 18.0288 22.781 18.0189 22.781H2.68643C2.52553 22.781 2.38957 22.6451 2.38957 22.4842V4.95059C2.38957 4.78969 2.52553 4.65373 2.68643 4.65373H28.5304C28.6913 4.65373 28.8272 4.78969 28.8272 4.95059V22.4842Z" fill="#FF693D"/>
<path d="M25.3809 7.99805H5.1943C4.70234 7.99805 4.30371 8.39667 4.30371 8.88863C4.30371 9.38059 4.70234 9.77922 5.1943 9.77922H25.3809C25.8728 9.77922 26.2715 9.38059 26.2715 8.88863C26.2715 8.39667 25.8728 7.99805 25.3809 7.99805Z" fill="#FF693D"/>
<path d="M13.7439 12.8271H5.1943C4.70234 12.8271 4.30371 13.2258 4.30371 13.7177C4.30371 14.2097 4.70234 14.6083 5.1943 14.6083H13.7439C14.2359 14.6083 14.6345 14.2097 14.6345 13.7177C14.6345 13.2258 14.2359 12.8271 13.7439 12.8271Z" fill="#FF693D"/>
</g>
<defs>
<clipPath id="clip0_495_26221">
<rect width="30" height="30" fill="white" transform="translate(0.608398 0.844238)"/>
</clipPath>
</defs>
</svg>
