<svg width="22" height="22" viewBox="0 0 22 22" fill="none" xmlns="http://www.w3.org/2000/svg">
<path d="M16.9169 0.584239C16.6873 0.0819503 16.094 -0.139092 15.5917 0.0905262C15.0894 0.320145 14.8684 0.913473 15.098 1.41576L16.9169 0.584239ZM20.9119 11.7284L21.8214 11.3127L16.9169 0.584239L16.0074 1L15.098 1.41576L20.0024 12.1442L20.9119 11.7284Z" fill="#FFDA49"/>
<path d="M3.21859 2.27663C2.82327 1.89096 2.19016 1.89878 1.80448 2.29409C1.41881 2.68941 1.42662 3.32252 1.82194 3.7082L3.21859 2.27663ZM15.0879 15.2535L15.7862 14.5377L3.21859 2.27663L2.52026 2.99242L1.82194 3.7082L14.3895 15.9693L15.0879 15.2535Z" fill="#FFDA49"/>
<path d="M1.51112 17.1893C0.971986 17.0695 0.437809 17.4094 0.318002 17.9486C0.198195 18.4877 0.538126 19.0219 1.07726 19.1417L1.51112 17.1893ZM12.3292 20.6177L12.5461 19.6415L1.51112 17.1893L1.29419 18.1655L1.07726 19.1417L12.1123 21.5939L12.3292 20.6177Z" fill="#FFDA49"/>
</svg>
