<svg width="31" height="31" viewBox="0 0 31 31" fill="none" xmlns="http://www.w3.org/2000/svg">
<path d="M13.2646 15.8442H20.7646C22.574 15.8442 24.0459 14.3724 24.0459 12.563V5.06299C24.0459 3.25361 22.574 1.78174 20.7646 1.78174H13.2646C11.4553 1.78174 9.9834 3.25361 9.9834 5.06299V12.563C9.9834 14.3724 11.4553 15.8442 13.2646 15.8442ZM11.8584 5.06299C11.8584 4.28486 12.4865 3.65674 13.2646 3.65674H20.7646C21.5428 3.65674 22.1709 4.28486 22.1709 5.06299V12.563C22.1709 13.3411 21.5428 13.9692 20.7646 13.9692H13.2646C12.4865 13.9692 11.8584 13.3411 11.8584 12.563V5.06299Z" fill="#FF693D"/>
<path d="M16.0771 11.6255H17.9521C19.499 11.6255 20.7646 10.3599 20.7646 8.81299V6.93799C20.7646 6.42236 20.3428 6.00049 19.8271 6.00049C19.3115 6.00049 18.8896 6.42236 18.8896 6.93799V8.81299C18.8896 9.32861 18.4678 9.75049 17.9521 9.75049H16.0771C15.5615 9.75049 15.1396 9.32861 15.1396 8.81299V6.93799C15.1396 6.42236 14.7178 6.00049 14.2021 6.00049C13.6865 6.00049 13.2646 6.42236 13.2646 6.93799V8.81299C13.2646 10.3599 14.5303 11.6255 16.0771 11.6255Z" fill="#FF693D"/>
<path d="M29.3053 17.5318C28.9209 16.8755 28.2646 16.4161 27.5146 16.2849C26.7646 16.1536 25.9959 16.3505 25.4053 16.8286L21.0459 20.3818C20.7553 19.1068 19.6303 18.188 18.3084 18.188H13.8834C12.974 18.188 12.1115 18.638 11.5865 19.3786L10.274 21.2349H9.99277V20.5224C9.99277 20.0068 9.5709 19.5849 9.05527 19.5849H2.4834C1.96777 19.5849 1.5459 20.0068 1.5459 20.5224V28.9599C1.5459 29.4755 1.96777 29.8974 2.4834 29.8974H9.0459C9.56152 29.8974 9.9834 29.4755 9.9834 28.9599V28.2474H19.4521C20.7084 28.2474 21.8896 27.7599 22.7709 26.8693L28.9115 20.7099C29.7553 19.8661 29.9146 18.5536 29.3053 17.5318ZM4.82715 21.4693V22.8755C4.82715 23.3911 4.40527 23.813 3.88965 23.813H3.4209V21.4693H4.82715ZM8.1084 28.0318H3.4209V25.688H3.88965C5.43652 25.688 6.70215 24.4224 6.70215 22.8755V21.4693H8.1084V28.0318ZM27.5803 19.388L21.4396 25.5474C20.9053 26.0818 20.2021 26.3724 19.4428 26.3724H9.97402V23.1099H10.7428C11.0521 23.1099 11.3334 22.9599 11.5115 22.7161L13.1053 20.4568C13.2834 20.213 13.5646 20.063 13.874 20.063H18.299C18.749 20.063 19.1428 20.3818 19.2178 20.8318L19.2834 21.1599H15.7396C15.224 21.1599 14.8021 21.5818 14.8021 22.0974C14.8021 22.613 15.224 23.0349 15.7396 23.0349H20.4178C20.6334 23.0349 20.8396 22.9599 21.0084 22.8286L26.5865 18.2911C26.8209 18.1036 27.0646 18.113 27.1865 18.1318C27.3084 18.1505 27.5428 18.2349 27.6928 18.488C27.8615 18.7786 27.8146 19.1536 27.5803 19.388Z" fill="#FF693D"/>
</svg>
