<svg width="31" height="31" viewBox="0 0 31 31" fill="none" xmlns="http://www.w3.org/2000/svg">
<g clip-path="url(#clip0_495_26188)">
<path d="M29.9729 29.025H1.24392C0.892955 29.025 0.608398 28.7405 0.608398 28.3895C0.608398 28.0385 0.892955 27.754 1.24392 27.754H29.9729C30.3238 27.754 30.6084 28.0385 30.6084 28.3895C30.6084 28.7405 30.3238 29.025 29.9729 29.025ZM28.8073 26.1284C28.4563 26.1284 28.1718 25.8438 28.1718 25.4929V11.4488H12.3469C11.9959 11.4488 11.7114 11.1643 11.7114 10.8133C11.7114 10.4624 11.9959 10.1778 12.3469 10.1778H28.8074C29.1584 10.1778 29.4429 10.4624 29.4429 10.8133V25.4928C29.4428 25.8438 29.1584 26.1284 28.8073 26.1284ZM6.73399 26.1284C6.38303 26.1284 6.09847 25.8438 6.09847 25.4929V15.0806C6.09847 14.7296 6.38303 14.445 6.73399 14.445C7.08496 14.445 7.36952 14.7296 7.36952 15.0806V25.4928C7.36952 25.8438 7.08496 26.1284 6.73399 26.1284ZM26.1071 24.8633H23.5186C23.1677 24.8633 22.8831 24.5787 22.8831 24.2278V20.5312C22.8831 20.1803 23.1677 19.8957 23.5186 19.8957H26.1071C26.4581 19.8957 26.7427 20.1803 26.7427 20.5312V24.2278C26.7427 24.5788 26.4581 24.8633 26.1071 24.8633ZM24.1542 23.5922H25.4716V21.1668H24.1542V23.5922ZM20.9199 24.8633H18.3314C17.9804 24.8633 17.6959 24.5787 17.6959 24.2278V20.5312C17.6959 20.1803 17.9804 19.8957 18.3314 19.8957H20.9199C21.2709 19.8957 21.5554 20.1803 21.5554 20.5312V24.2278C21.5554 24.5788 21.2709 24.8633 20.9199 24.8633ZM18.9669 23.5922H20.2844V21.1668H18.9669V23.5922ZM15.7326 24.8633H13.144C12.793 24.8633 12.5085 24.5787 12.5085 24.2278V20.5312C12.5085 20.1803 12.793 19.8957 13.144 19.8957H15.7326C16.0835 19.8957 16.3681 20.1803 16.3681 20.5312V24.2278C16.3681 24.5788 16.0835 24.8633 15.7326 24.8633ZM13.7795 23.5922H15.097V21.1668H13.7795V23.5922ZM3.92306 22.2433C3.71612 22.2433 3.51315 22.1424 3.39113 21.9564C2.99567 21.3537 2.77292 20.6619 2.7421 19.9457C1.44991 19.2584 0.608398 17.8903 0.608398 16.4134C0.608398 14.9366 1.44991 13.5685 2.74202 12.8812C2.8325 10.7576 4.58846 9.05784 6.73399 9.05784C8.87945 9.05784 10.6353 10.7576 10.7259 12.8811C12.0181 13.5683 12.8596 14.9365 12.8596 16.4133C12.8596 17.8901 12.018 19.2583 10.7258 19.9456C10.6951 20.6583 10.4741 21.3474 10.082 21.9482C9.89025 22.2421 9.49647 22.325 9.20254 22.1331C8.9086 21.9413 8.82575 21.5476 9.0176 21.2537C9.30605 20.8116 9.45849 20.2997 9.45849 19.7734C9.45849 19.7131 9.45627 19.6517 9.45174 19.5857C9.43268 19.3092 9.59505 19.0521 9.853 18.9506C10.891 18.542 11.5885 17.5223 11.5885 16.4133C11.5885 15.3043 10.891 14.2846 9.853 13.8761C9.59505 13.7746 9.4326 13.5176 9.45174 13.2409C9.45627 13.175 9.45849 13.1136 9.45849 13.0533C9.45849 11.551 8.2363 10.3288 6.73407 10.3288C5.23177 10.3288 4.00949 11.551 4.00949 13.0533C4.00949 13.1141 4.01172 13.1772 4.01617 13.2406C4.03539 13.5173 3.87302 13.7745 3.61491 13.8761C2.57686 14.2847 1.87945 15.3043 1.87945 16.4134C1.87945 17.5226 2.57686 18.5422 3.61491 18.9507C3.87286 19.0522 4.03531 19.3092 4.01617 19.5858C4.01164 19.6517 4.00942 19.7131 4.00942 19.7734C4.00942 20.3022 4.16313 20.8159 4.45389 21.2591C4.64645 21.5526 4.56463 21.9466 4.27117 22.1392C4.16361 22.2097 4.0427 22.2433 3.92306 22.2433ZM26.1071 18.2162H23.5186C23.1677 18.2162 22.8831 17.9316 22.8831 17.5806V13.8841C22.8831 13.5331 23.1677 13.2486 23.5186 13.2486H26.1071C26.4581 13.2486 26.7427 13.5331 26.7427 13.8841V17.5806C26.7427 17.9316 26.4581 18.2162 26.1071 18.2162ZM24.1542 16.9451H25.4716V14.5196H24.1542V16.9451ZM20.9199 18.2162H18.3314C17.9804 18.2162 17.6959 17.9316 17.6959 17.5806V13.8841C17.6959 13.5331 17.9804 13.2486 18.3314 13.2486H20.9199C21.2709 13.2486 21.5554 13.5331 21.5554 13.8841V17.5806C21.5554 17.9316 21.2709 18.2162 20.9199 18.2162ZM18.9669 16.9451H20.2844V14.5196H18.9669V16.9451ZM15.7326 18.2162H14.5288C14.1778 18.2162 13.8933 17.9316 13.8933 17.5806C13.8933 17.2297 14.1778 16.9451 14.5288 16.9451H15.097V14.5196H14.5288C14.1778 14.5196 13.8933 14.2351 13.8933 13.8841C13.8933 13.5331 14.1778 13.2486 14.5288 13.2486H15.7326C16.0835 13.2486 16.3681 13.5331 16.3681 13.8841V17.5806C16.3681 17.9316 16.0835 18.2162 15.7326 18.2162ZM26.9413 9.03067C26.5904 9.03067 26.3058 8.74611 26.3058 8.39514V3.93463H17.2728V8.39514C17.2728 8.74611 16.9882 9.03067 16.6372 9.03067C16.2863 9.03067 16.0017 8.74611 16.0017 8.39514V3.2991C16.0017 2.94813 16.2863 2.66357 16.6372 2.66357H26.9413C27.2923 2.66357 27.5769 2.94813 27.5769 3.2991V8.39514C27.5769 8.74619 27.2924 9.03067 26.9413 9.03067ZM24.2975 7.99619C23.9466 7.99619 23.662 7.71164 23.662 7.36067V6.12489C23.662 5.77392 23.9466 5.48936 24.2975 5.48936C24.6485 5.48936 24.9331 5.77392 24.9331 6.12489V7.36059C24.9331 7.71164 24.6485 7.99619 24.2975 7.99619ZM21.7892 7.99619C21.4382 7.99619 21.1537 7.71164 21.1537 7.36067V6.12489C21.1537 5.77392 21.4382 5.48936 21.7892 5.48936C22.1402 5.48936 22.4247 5.77392 22.4247 6.12489V7.36059C22.4247 7.71164 22.1402 7.99619 21.7892 7.99619ZM19.2811 7.99619C18.9301 7.99619 18.6456 7.71164 18.6456 7.36067V6.12489C18.6456 5.77392 18.9301 5.48936 19.2811 5.48936C19.6321 5.48936 19.9166 5.77392 19.9166 6.12489V7.36059C19.9166 7.71164 19.6321 7.99619 19.2811 7.99619Z" fill="#FF693D"/>
</g>
<defs>
<clipPath id="clip0_495_26188">
<rect width="30" height="30" fill="white" transform="translate(0.608398 0.844238)"/>
</clipPath>
</defs>
</svg>
