<svg width="24" height="25" viewBox="0 0 24 25" fill="none" xmlns="http://www.w3.org/2000/svg">
<path d="M15.5174 15.1173C15.5174 15.2656 15.4734 15.4106 15.391 15.534C15.3086 15.6573 15.1915 15.7534 15.0544 15.8102C14.9174 15.8669 14.7666 15.8818 14.6211 15.8529C14.4756 15.8239 14.342 15.7525 14.2371 15.6476C14.1322 15.5427 14.0608 15.4091 14.0318 15.2636C14.0029 15.1181 14.0177 14.9673 14.0745 14.8303C14.1313 14.6932 14.2274 14.5761 14.3507 14.4937C14.4741 14.4113 14.6191 14.3673 14.7674 14.3673C14.9663 14.3673 15.1571 14.4463 15.2978 14.5869C15.4384 14.7276 15.5174 14.9184 15.5174 15.1173ZM9.51742 10.6173C9.51742 10.4689 9.47343 10.3239 9.39102 10.2006C9.30861 10.0773 9.19148 9.98113 9.05443 9.92436C8.91739 9.8676 8.76659 9.85275 8.6211 9.88169C8.47562 9.91062 8.34198 9.98205 8.23709 10.0869C8.1322 10.1918 8.06077 10.3255 8.03183 10.471C8.00289 10.6164 8.01775 10.7672 8.07451 10.9043C8.13128 11.0413 8.22741 11.1585 8.35074 11.2409C8.47408 11.3233 8.61908 11.3673 8.76742 11.3673C8.96633 11.3673 9.1571 11.2883 9.29775 11.1476C9.4384 11.007 9.51742 10.8162 9.51742 10.6173ZM21.0524 14.7273C21.0472 14.7364 21.0444 14.7467 21.0444 14.7573C21.0444 14.7678 21.0472 14.7782 21.0524 14.7873L21.4499 15.7773C21.6078 16.1591 21.6078 16.588 21.4499 16.9698C21.372 17.1597 21.2558 17.3315 21.1088 17.4747C20.9617 17.6179 20.7868 17.7294 20.5949 17.8023L19.6949 18.1698V19.1898C19.6949 19.6035 19.5306 20.0003 19.238 20.2929C18.9454 20.5854 18.5487 20.7498 18.1349 20.7498H17.0174L16.5524 21.7698C16.3931 22.1517 16.0892 22.4552 15.7071 22.6139C15.3249 22.7727 14.8955 22.7739 14.5124 22.6173L13.6199 22.2348L12.8699 22.9323C12.5774 23.2245 12.1809 23.3886 11.7674 23.3886C11.354 23.3886 10.9574 23.2245 10.6649 22.9323L9.91492 22.1823L8.86492 22.5723C8.48311 22.7302 8.05423 22.7302 7.67242 22.5723C7.48254 22.4943 7.31068 22.3782 7.16748 22.2311C7.02429 22.0841 6.9128 21.9092 6.83992 21.7173L6.47242 20.8173H5.45242C5.24756 20.8173 5.0447 20.7769 4.85543 20.6985C4.66617 20.6201 4.49419 20.5052 4.34933 20.3604C4.20447 20.2155 4.08957 20.0435 4.01117 19.8543C3.93277 19.665 3.89242 19.4621 3.89242 19.2573V18.1173L2.87242 17.6523C2.48912 17.4944 2.18396 17.1911 2.02373 16.8088C1.86349 16.4265 1.86122 15.9963 2.01742 15.6123L2.39992 14.7198L1.70242 13.9698C1.41022 13.6773 1.24609 13.2807 1.24609 12.8673C1.24609 12.4538 1.41022 12.0573 1.70242 11.7648L2.45242 11.0148L2.06242 9.96477C1.9045 9.58296 1.9045 9.15409 2.06242 8.77227C2.14366 8.57732 2.26516 8.40171 2.41896 8.25696C2.57276 8.11221 2.7554 8.00156 2.95492 7.93227L3.85492 7.56477V6.54477C3.85488 6.33736 3.89621 6.13203 3.97647 5.94078C4.05674 5.74953 4.17434 5.5762 4.32239 5.43094C4.47044 5.28569 4.64597 5.17141 4.83872 5.0948C5.03146 5.01819 5.23755 4.98079 5.44492 4.98477H6.51742L6.98242 3.96477C7.14172 3.58283 7.4456 3.27938 7.82776 3.12061C8.20993 2.96184 8.63937 2.96064 9.02242 3.11727L9.91492 3.49977L10.6649 2.80227C10.9574 2.51008 11.354 2.34595 11.7674 2.34595C12.1809 2.34595 12.5774 2.51008 12.8699 2.80227L13.6199 3.55227L14.6699 3.16227C15.0517 3.00435 15.4806 3.00435 15.8624 3.16227C16.0523 3.24024 16.2242 3.35636 16.3674 3.50342C16.5106 3.65049 16.622 3.82538 16.6949 4.01727L17.0774 4.94727H18.0824C18.4962 4.94727 18.893 5.11163 19.1855 5.40419C19.4781 5.69674 19.6424 6.09354 19.6424 6.50727V7.61727L20.6624 8.08227C21.0457 8.24015 21.3509 8.54343 21.5111 8.92574C21.6713 9.30806 21.6736 9.73829 21.5174 10.1223L21.1349 11.0148L21.8324 11.7648C22.1246 12.0573 22.2887 12.4538 22.2887 12.8673C22.2887 13.2807 22.1246 13.6773 21.8324 13.9698L21.0524 14.7273ZM8.76742 12.8673C9.21243 12.8673 9.64744 12.7353 10.0175 12.4881C10.3875 12.2408 10.6759 11.8894 10.8461 11.4783C11.0164 11.0672 11.061 10.6148 10.9742 10.1783C10.8874 9.74186 10.6731 9.34095 10.3584 9.02628C10.0437 8.71162 9.64283 8.49732 9.20637 8.41051C8.76992 8.32369 8.31752 8.36825 7.90638 8.53855C7.49525 8.70884 7.14385 8.99723 6.89661 9.36724C6.64938 9.73725 6.51742 10.1723 6.51742 10.6173C6.51742 11.214 6.75447 11.7863 7.17643 12.2083C7.59839 12.6302 8.17068 12.8673 8.76742 12.8673ZM15.3899 8.77977C15.4554 8.6985 15.5032 8.60447 15.5302 8.50368C15.5573 8.40289 15.563 8.29756 15.547 8.19444C15.531 8.09131 15.4937 7.99266 15.4374 7.90478C15.3811 7.81691 15.3071 7.74175 15.2201 7.6841C15.1331 7.62646 15.0351 7.5876 14.9322 7.57002C14.8293 7.55244 14.7239 7.55651 14.6227 7.58199C14.5215 7.60746 14.4268 7.65378 14.3445 7.71797C14.2622 7.78216 14.1942 7.86281 14.1449 7.95477L8.14492 16.9548C8.03637 17.1201 7.99754 17.3217 8.03687 17.5155C8.0762 17.7093 8.19051 17.8798 8.35492 17.9898C8.4757 18.0744 8.61997 18.119 8.76742 18.1173C8.89095 18.1166 9.01241 18.0855 9.12101 18.0266C9.22961 17.9677 9.32198 17.8829 9.38992 17.7798L15.3899 8.77977ZM17.0174 15.1173C17.0174 14.6723 16.8855 14.2373 16.6382 13.8672C16.391 13.4972 16.0396 13.2088 15.6285 13.0385C15.2173 12.8682 14.7649 12.8237 14.3285 12.9105C13.892 12.9973 13.4911 13.2116 13.1764 13.5263C12.8618 13.841 12.6475 14.2419 12.5607 14.6783C12.4738 15.1148 12.5184 15.5672 12.6887 15.9783C12.859 16.3894 13.1474 16.7408 13.5174 16.9881C13.8874 17.2353 14.3224 17.3673 14.7674 17.3673C15.3642 17.3673 15.9365 17.1302 16.3584 16.7083C16.7804 16.2863 17.0174 15.714 17.0174 15.1173Z" fill="#FF693D"/>
</svg>
