<svg width="31" height="31" viewBox="0 0 31 31" fill="none" xmlns="http://www.w3.org/2000/svg">
<path fill-rule="evenodd" clip-rule="evenodd" d="M9.0459 5.84424C9.0459 4.98129 9.74545 4.28174 10.6084 4.28174H25.6084C26.4714 4.28174 27.1709 4.98129 27.1709 5.84424V13.3442C27.1709 14.2072 26.4714 14.9067 25.6084 14.9067H24.3584C23.8407 14.9067 23.4209 15.3265 23.4209 15.8442C23.4209 16.362 23.8407 16.7817 24.3584 16.7817H25.6084C27.5069 16.7817 29.0459 15.2427 29.0459 13.3442V5.84424C29.0459 3.94576 27.5069 2.40674 25.6084 2.40674H10.6084C8.70992 2.40674 7.1709 3.94576 7.1709 5.84424V7.71924C7.1709 8.237 7.59064 8.65674 8.1084 8.65674C8.62616 8.65674 9.0459 8.237 9.0459 7.71924V5.84424ZM9.3584 13.3442C9.3584 14.725 8.23911 15.8442 6.8584 15.8442C5.47769 15.8442 4.3584 14.725 4.3584 13.3442C4.3584 11.9635 5.47769 10.8442 6.8584 10.8442C8.23911 10.8442 9.3584 11.9635 9.3584 13.3442ZM22.647 12.6013C22.927 12.1658 22.8009 11.5857 22.3654 11.3058C21.9299 11.0258 21.3498 11.1519 21.0698 11.5874L16.2064 19.1526C15.7077 18.9877 15.141 19.0394 14.6619 19.3442L10.6084 21.4692V20.8442C10.6084 18.7731 8.92946 17.0942 6.8584 17.0942C4.78734 17.0942 3.1084 18.7731 3.1084 20.8442V28.3442H10.6084V25.4442C10.9376 25.3951 11.2627 25.279 11.5637 25.0909L16.5975 22.4135C17.2006 22.0366 17.5068 21.3624 17.442 20.698L22.647 12.6013ZM12.1709 8.34424C12.1709 7.82648 12.5906 7.40674 13.1084 7.40674H23.1084C23.6262 7.40674 24.0459 7.82648 24.0459 8.34424C24.0459 8.862 23.6262 9.28174 23.1084 9.28174H13.1084C12.5906 9.28174 12.1709 8.862 12.1709 8.34424ZM13.1084 11.1567C12.5906 11.1567 12.1709 11.5765 12.1709 12.0942C12.1709 12.612 12.5906 13.0317 13.1084 13.0317H18.1084C18.6262 13.0317 19.0459 12.612 19.0459 12.0942C19.0459 11.5765 18.6262 11.1567 18.1084 11.1567H13.1084Z" fill="#FF693D"/>
</svg>
